<svg width="24" height="24" viewBox="0 0 24 24" fill="none" xmlns="http://www.w3.org/2000/svg">
<g id="Operation system">
<g id="Vector">
<path d="M18.8167 9.04721C18.5376 9.04721 18.27 9.15804 18.0727 9.35534C17.8754 9.55263 17.7646 9.8202 17.7646 10.0992V14.8669C17.7646 15.1459 17.8754 15.4135 18.0727 15.6108C18.27 15.8081 18.5376 15.9189 18.8167 15.9189C19.0957 15.9189 19.3633 15.8081 19.5606 15.6108C19.7579 15.4135 19.8687 15.1459 19.8687 14.8669V10.0992C19.8687 9.8202 19.7579 9.55263 19.5606 9.35534C19.3633 9.15804 19.0957 9.04721 18.8167 9.04721Z" fill="white"/>
<path d="M5.25222 9.04721C4.97321 9.04721 4.70562 9.15804 4.50833 9.35534C4.31104 9.55263 4.2002 9.8202 4.2002 10.0992V14.8669C4.2002 15.1459 4.31104 15.4135 4.50833 15.6108C4.70562 15.8081 4.97321 15.9189 5.25222 15.9189C5.53123 15.9189 5.79883 15.8081 5.99612 15.6108C6.19341 15.4135 6.30425 15.1459 6.30425 14.8669V10.0992C6.30425 9.8202 6.19341 9.55263 5.99612 9.35534C5.79883 9.15804 5.53123 9.04721 5.25222 9.04721Z" fill="white"/>
<path d="M7.06529 9.04721V16.2099C7.06529 16.3672 7.09626 16.523 7.15645 16.6682C7.21662 16.8135 7.30483 16.9456 7.41603 17.0567C7.52723 17.1679 7.65925 17.2561 7.80454 17.3163C7.94982 17.3764 8.10554 17.4074 8.26281 17.4074H9.02385V19.948C9.02385 20.227 9.13468 20.4946 9.33198 20.6919C9.52927 20.8892 9.79687 21 10.0759 21C10.3549 21 10.6225 20.8892 10.8198 20.6919C11.0171 20.4946 11.1279 20.227 11.1279 19.948V17.4074H12.941V19.948C12.941 20.227 13.0518 20.4946 13.2491 20.6919C13.4464 20.8892 13.714 21 13.993 21C14.272 21 14.5396 20.8892 14.7369 20.6919C14.9342 20.4946 15.045 20.227 15.045 19.948V17.4074H15.8061C16.1237 17.4074 16.4282 17.2813 16.6528 17.0567C16.8775 16.8322 17.0036 16.5275 17.0036 16.2099V9.04721H7.06529Z" fill="white"/>
<path d="M16.8693 7.5587C16.5399 6.45364 15.8094 5.51158 14.8212 4.91744L14.6533 4.81672L14.4742 4.72718L14.6757 4.38024L15.2689 3.26106C15.2801 3.22918 15.2807 3.1945 15.2706 3.16223C15.2606 3.12996 15.2403 3.10181 15.2129 3.08199H15.1346C15.106 3.08328 15.078 3.09098 15.0529 3.10454C15.0277 3.11811 15.0059 3.13718 14.9891 3.16034L14.3847 4.20117L14.1945 4.54812L14.0154 4.46977L13.8251 4.40262C12.6653 4.0001 11.4036 4.0001 10.2438 4.40262L10.0647 4.46977L9.87442 4.54812L9.68416 4.20117L9.07981 3.08199C9.06951 3.06363 9.05571 3.04746 9.03917 3.03443C9.02264 3.02139 9.0037 3.01173 8.98344 3.00602C8.96317 3.0003 8.94197 2.99864 8.92106 3.00111C8.90016 3.00358 8.87994 3.01015 8.86157 3.02044C8.84319 3.03073 8.82703 3.04453 8.81399 3.06108C8.80095 3.07761 8.79131 3.09655 8.78559 3.11681C8.77988 3.13708 8.7782 3.15828 8.78069 3.17918C8.78316 3.20009 8.78972 3.22031 8.80001 3.23868L9.39318 4.35786L9.59463 4.7048L9.41556 4.79433L9.24769 4.89506C8.25472 5.49164 7.52636 6.44413 7.21078 7.5587C7.12343 7.84953 7.07452 8.15054 7.06529 8.45404H17.0036C16.9926 8.15151 16.9475 7.85115 16.8693 7.5587ZM9.79608 6.96554C9.70754 6.96554 9.62099 6.93928 9.54737 6.89009C9.47375 6.84091 9.41637 6.77099 9.38249 6.68919C9.3486 6.60739 9.33974 6.51737 9.35701 6.43054C9.37429 6.34369 9.41692 6.26393 9.47952 6.20132C9.54214 6.13871 9.6219 6.09607 9.70874 6.0788C9.79558 6.06153 9.88562 6.0704 9.96743 6.10428C10.0492 6.13816 10.1191 6.19554 10.1683 6.26916C10.2175 6.34278 10.2438 6.42933 10.2438 6.51787C10.2438 6.6366 10.1966 6.75047 10.1126 6.83443C10.0286 6.91838 9.91483 6.96554 9.79608 6.96554ZM14.2728 6.96554C14.1843 6.96554 14.0976 6.93928 14.0241 6.89009C13.9505 6.84091 13.8931 6.77099 13.8591 6.68919C13.8253 6.60739 13.8164 6.51737 13.8337 6.43054C13.851 6.34369 13.8936 6.26393 13.9563 6.20132C14.0189 6.13871 14.0986 6.09607 14.1855 6.0788C14.2723 6.06153 14.3623 6.0704 14.4441 6.10428C14.526 6.13816 14.5958 6.19554 14.645 6.26916C14.6942 6.34278 14.7205 6.42933 14.7205 6.51787C14.7205 6.6366 14.6733 6.75047 14.5893 6.83443C14.5054 6.91838 14.3915 6.96554 14.2728 6.96554Z" fill="white"/>
</g>
</g>
</svg>
